<?xml version="1.0" encoding="UTF-8" standalone="no"?>
<!-- Generator: Adobe Illustrator 16.0.0, SVG Export Plug-In . SVG Version: 6.00 Build 0)  -->

<svg
   version="1.1"
   id="レイヤー_1"
   x="0px"
   y="0px"
   width="498px"
   height="526px"
   viewBox="0 0 498 526"
   enable-background="new 0 0 498 526"
   xml:space="preserve"
   sodipodi:docname="Map_of_Fukuoka_Prefecture_Ja.svg"
   inkscape:version="1.4.3 (0d15f75, 2025-12-25)"
   xmlns:inkscape="http://www.inkscape.org/namespaces/inkscape"
   xmlns:sodipodi="http://sodipodi.sourceforge.net/DTD/sodipodi-0.dtd"
   xmlns="http://www.w3.org/2000/svg"
   xmlns:svg="http://www.w3.org/2000/svg"
   xmlns:rdf="http://www.w3.org/1999/02/22-rdf-syntax-ns#"
   xmlns:cc="http://creativecommons.org/ns#"
   xmlns:dc="http://purl.org/dc/elements/1.1/"><defs
   id="defs8" /><sodipodi:namedview
   id="namedview8"
   pagecolor="#ffffff"
   bordercolor="#666666"
   borderopacity="1.0"
   inkscape:showpageshadow="2"
   inkscape:pageopacity="0.0"
   inkscape:pagecheckerboard="0"
   inkscape:deskcolor="#d1d1d1"
   inkscape:zoom="4"
   inkscape:cx="171.5"
   inkscape:cy="200.75"
   inkscape:current-layer="レイヤー_1" />
<title
   id="title1">福岡県行政区画地図 (2018年10月1日)</title>
<desc
   id="desc1">Author: Lincun</desc>
<rect
   y="0"
   fill="#EEEEEE"
   width="498"
   height="526"
   id="rect1" />
<g
   id="g7"
   style="display:inline">
	<path
   fill="#cccccc"
   stroke="#000000"
   stroke-width="0.2"
   stroke-linejoin="round"
   d="m 369,-1 v 2 l 1,5 -4,8 h 3 l 2,3 v 5 l -2,3 -1,5 3,6 v 3 l -1,5 -3,5 1,-1 4,1 -2,6 4,2 2,-1 v -1 l -2,-1 h 1 l -1,-2 h 3 l 1,-2 v 2 l 1,-1 2,-3 17,-13 5,-4 -2,-3 2,1 v -4 l 3,2 1,-2 -2,-1 v -3 l 1,-2 -1,-1 11,-11 V 4 l 3,-5 z m 51,0 h 2 l 1,3 v 3 l 8,3 6,2 1,-2 h 4 l 2,2 8,13 5,5 1,2 h 2 l -2,-3 v -4 2 l 7,-1 -2,5 6,4 2,3 -2,1 v 2 l 1,-1 2,-1 v 1 h 2 l -2,2 2,1 h -5 v 2 l 2,-2 v 2 l 1,1 -4,1 v 4 l 8,10 h 3 v -3 l 5,-2 5,-1 v -3 l 6,2 2,-5 1,1 -3,5 -4,4 3,1 3,-2 2,-6 V -1 Z m 79,57 -1,1 -1,3 1,1 1,-1 z m -130,-7 -1,2 -3,-1 v 3 l -2,1 -6,-5 -3,4 3,2 4,2 1,-1 1,3 h -1 l 2,2 v 3 l 4,-2 v 3 l -3,1 4,4 4,-1 3,-7 -3,-3 1,-2 h -3 l -2,-3 2,-3 z m 7,10 1,1 v -2 l -1,-1 z m -21,-7 1,-3 -3,2 z m -7,-12 1,1 h 2 l 1,-4 -1,-1 h -2 z m 58,-22 2,3 5,-4 -4,-3 z M -1,488 v 4 l 2,5 3,2 3,2 5,-1 v 3 l 6,4 h 1 l 3,6 4,3 6,-1 4,7 12,2 9,1 2,-2 2,4 h 31 v -1 l -2,-5 -2,-2 -2,1 -1,-1 1,-2 -2,-3 h -6 l 1,-4 h -2 v -6 l -4,-3 h 2 l -2,-3 h 2 l -5,-6 v -7 l -5,-3 v -2 l -5,-6 v -2 l -2,-2 2,-2 -2,-4 3,-7 8,-10 10,-6 -1,-2 6,-4 7,-5 4,-9 v -4 l 1,-1 5,1 v -5 h 3 l 2,2 -1,1 -2,3 4,5 7,5 v 2 l 3,2 -1,2 2,5 27,3 -1,-14 v -1 -4 l -2,-1 -2,-3 h -1 v -7 l 1,-3 h 5 l 3,-3 6,-3 1,-4 -4,-4 2,-3 4,2 2,-3 v -6 h 4 l 1,5 3,-1 4,-5 -1,-4 5,-2 v -6 l -1,-2 2,-1 3,1 -2,8 3,4 h 3 v -6 l 2,-3 h 2 1 l 3,-2 -5,-3 v -4 l 11,-1 2,-6 -5,-5 2,-2 2,-1 5,4 3,-3 1,-6 7,2 3,-3 1,1 3,-11 v -14 l -1,-13 -2,-6 1,-2 -10,-5 -2,3 -2,-2 -9,5 -2,-1 -6,5 -1,4 -7,2 -1,7 -4,2 -4,-2 -3,3 -2,-3 4,-4 -5,-3 -2,-4 -1,-2 -7,2 -4,-6 -4,1 h -2 l -4,-5 h -2 -1 l -1,-3 -5,-4 h -3 l -4,-2 h -3 l -2,-3 -8,-5 -6,2 -3,2 -5,-1 -2,-3 -2,1 -5,-1 -7,-1 v 2 h -1 l -3,1 -2,4 h -6 l -3,-4 -5,-1 -4,3 -4,-2 -9,-1 -2,3 -3,1 h -8 l -2,-2 -6,2 h -2 l -4,-1 -2,2 1,3 2,1 -2,3 -5,2 -7,1 -6,-2 z m 0,-207 h 1 l -1,-3 z m 62,246 -2,-4 -2,2 -9,-1 -12,-2 -4,-7 -6,1 -4,-3 -3,-6 h -1 l -6,-4 v -3 l -5,1 -3,-2 -3,-2 -2,-5 v 35 z m 438,-24 -2,-2 1,-1 -5,-14 1,-2 -8,-9 v -1 l -2,-2 -3,2 -3,-3 -2,-5 v -7 l -4,-6 1,-6 -2,-6 -6,-4 1,-1 v -1 l -6,-3 -1,-3 -5,-1 -1,-4 -2,-3 -4,-2 -3,1 -5,-2 -9,-3 -7,1 -11,8 h -4 l -5,-3 v 3 l -2,1 -2,9 1,7 -2,-1 -1,2 7,5 -1,3 2,3 5,4 3,7 3,3 -5,6 -1,3 3,3 -1,2 v 6 l -4,3 -3,6 -3,2 h -8 l -4,-6 -2,-6 -4,-2 -3,1 -1,-2 -3,2 -5,-1 -3,-5 -5,-1 v -3 l -2,-2 -1,-4 -2,-2 -3,-2 -4,1 -2,-2 -7,1 -2,-5 -7,-1 -2,-4 -4,-1 -6,-4 h -9 l -1,-2 -2,-2 h -3 l -2,-3 -5,-4 -2,-3 -5,1 -4,-2 -1,2 -3,-1 -4,1 v -6 l -5,-4 v 4 l -5,4 1,8 -3,4 -1,7 -2,1 2,2 -1,1 -8,-2 -9,2 -5,-3 -9,-1 -4,4 -3,2 -1,3 2,3 v 2 l -6,1 -1,2 h -2 l -3,1 -2,7 -6,-1 -9,8 9,18 -4,5 -3,-2 -6,2 -2,-1 -14,1 -7,-2 -5,2 1,4 h 2 l 3,-1 -2,1 1,3 h 1 l 1,11 h 323 z m 0,-284 -8,-2 1,-2 -4,-4 h -3 l -2,2 -1,-3 -1,2 -1,-1 -3,6 v 4 l -2,4 v 5 l 5,5 2,4 -2,7 -8,8 2,3 -1,3 4,4 -3,1 -5,-1 -14,3 h -1 l -5,-3 -4,2 -2,-2 -7,1 -4,-1 -9,-1 -3,-4 h -3 l -1,3 -5,2 -5,-2 -4,2 h -1 -3 l -4,1 -4,6 -5,3 -3,1 -6,14 -5,1 -2,2 -4,1 -1,1 -2,11 -1,5 1,3 -2,1 -1,8 1,4 -4,2 h -6 l -1,2 v 5 l -7,6 -3,3 1,2 3,3 v -2 h 2 l 3,5 -1,2 5,15 -6,7 3,5 h 2 1 v 2 h -5 l -4,3 -6,-1 -2,2 v 9 l 14,3 -1,2 -5,1 -3,4 v 2 l 3,2 8,7 h 4 l 5,3 v 1 4 l -4,1 -1,2 2,8 -3,3 -2,10 -3,2 1,2 -3,4 -6,3 2,5 7,-1 2,2 4,-1 3,2 2,2 1,4 2,2 v 3 l 5,1 3,5 5,1 3,-2 1,2 3,-1 4,2 2,6 4,6 h 8 l 3,-2 3,-6 4,-3 v -6 l 1,-2 -3,-3 1,-3 5,-6 -3,-3 -3,-7 -5,-4 -2,-3 1,-3 -7,-5 1,-2 2,1 -1,-7 2,-9 2,-1 v -3 l 5,3 h 4 l 11,-8 7,-1 9,3 5,2 3,-1 4,2 2,3 1,4 5,1 1,3 6,3 v 1 l -1,1 6,4 2,6 -1,6 4,6 v 7 l 2,5 3,3 3,-2 2,2 v 1 l 8,9 -1,2 5,14 -1,1 2,2 z"
   id="path1"
   style="display:inline" />
	<path
   fill="#dcb6f2"
   stroke="#000000"
   stroke-width="0.2"
   stroke-linejoin="round"
   d="m 162,303 v -6 l 3,2 v -2 l -2,-1 v -3 l -5,-3 1,-6 -3,-6 -1,-8 -3,-4 2,-2 2,2 4,-2 1,1 2,-3 h 2 l 1,-4 4,-1 4,-3 1,3 h 2 l 3,-6 -1,-2 1,-3 4,-1 5,6 2,-1 1,-6 -4,-5 1,-1 5,5 4,-4 -1,-3 h -2 v -3 l -2,-5 -4,-5 -8,-6 -1,-3 13,-12 5,5 3,-2 v -2 -2 l 1,-3 -2,-2 -1,1 -2,-2 -2,1 v -3 l -4,-5 v -6 -1 l -2,-1 -3,2 -3,-9 -12,-7 -1,4 -6,7 -9,7 -13,6 -7,1 -5,-1 -5,-12 h -6 l -1,3 5,10 h 5 v -1 l 6,1 3,5 2,-1 7,4 2,-1 -1,-3 1,-4 3,-3 12,-2 4,-3 -2,-1 1,-2 8,-2 3,1 v 3 l -3,2 3,5 v 2 h -3 l -8,4 6,2 v 3 l -4,-1 2,1 v 1 l -3,-2 -2,4 2,1 -2,5 4,2 1,-1 -1,2 -5,-1 -1,2 4,2 -1,1 -3,-2 -1,1 2,2 h -2 l 1,3 -2,1 1,-2 -3,-4 -2,1 2,3 -2,1 h 3 l 1,1 h -2 l -1,2 h -2 l -1,-2 h 2 l -3,-3 -8,3 -3,1 -2,-1 -6,-1 -2,3 v -2 h -2 -3 v 5 l -4,2 -3,1 -3,-1 -4,1 -5,-4 v -4 l 1,2 3,-5 v -4 h -9 l -8,-2 -3,-9 5,-7 -5,-4 -7,-5 v 10 l -3,1 -1,2 4,6 -1,7 2,4 -1,4 2,4 3,4 h 5 2 l 1,4 -1,3 v 7 l 3,-3 8,1 2,4 8,5 v 8 l 1,4 -1,2 -2,-2 v 3 h -2 l -3,5 1,3 -1,1 v 4 l 8,5 2,3 h 3 l 4,2 h 3 l 5,4 1,3 h 1 2 l 4,5 h 2 l 4,-1 4,6 z m -41,-91 1,4 2,1 5,-5 v -3 l -4,-7 -2,1 v 5 z M 164.04105,192.21653 169,190 l 2,2 4,-3 -2,-5 h -3 l -7.83395,4.46653 -0.0625,1.125 z M 98,177 l -1,-3 -4,1 4,5 h 1 z M 404,90 h -4 l -2,2 -1,-1 2,-3 v -5 l 1,1 1,-1 2,-1 -1,5 2,1 2,-9 v 1 l -6,-3 -1,-2 4,-4 1,2 2,-1 -1,-2 1,-2 4,-1 1,-2 -3,-1 h -3 v -2 h 1 l -1,1 4,-3 -1,-2 1,-3 4,-1 -1,-3 2,-5 h -3 l 1,-1 -3,-2 -2,2 -2,-1 3,-2 -3,-1 -4,6 h -2 l 2,-2 -6,2 -2,-2 h -4 l 1,7 -7,4 -5,14 -8,7 -5,2 v -1 l -3,1 -1,2 -2,-1 2,-2 -3,1 -3,1 3,-3 h 4 l -3,-3 -5,2 v 1 l -3,-1 -1,1 1,-2 h 2 l 5,-3 h -3 l 1,-2 -3,-3 -3,3 -1,-1 -3,2 1,1 -1,1 -1,-1 -1,-2 6,-2 2,-1 -1,-2 -7,3 2,-2 -2,1 v -1 l 5,-3 -3,-2 -12,5 -1,7 -1,-1 1,2 -2,2 -4,3 v 3 l 1,4 -4,2 2,-4 v -5 l -4,3 -4,1 -1,3 h -1 l 1,-2 h -2 l -3,3 1,-2 -12,3 3,-2 -1,-3 -1,-2 3,4 5,-1 8,-2 h -9 l 6,-3 1,1 1,-2 v 2 h 6 l 2,-2 5,-5 1,-5 -4,1 v -2 l 2,-1 2,1 1,-3 -5,-4 -12,-2 -1,4 -8,3 -1,-2 7,-2 v -2 h -4 v -3 l 4,-1 v -3 l -7,1 v 3 h -5 5 v 4 h -5 l -1,2 -4,-2 1,-2 -9,-1 -3,-1 -5,2 -2,-1 1,4 -5,5 2,1 -1,5 4,4 -1,4 v 1 l 2,5 3,2 -1,3 3,5 h 2 v 2 l 3,2 4,4 -1,3 h 3 l 1,4 6,4 -5,2 -3,5 h -2 l 1,-2 -4,-2 2,2 -5,3 1,2 6,11 7,2 3,-1 3,1 5,-3 v -2 l 1,-3 h 5 l 3,3 h 2 l 2,2 1,2 -1,3 3,8 -1,3 1,4 6,4 v 2 l 8,-2 h 2 l 3,-4 h 6 l 5,-5 1,1 h 2 l 2,4 3,-7 v -2 l 2,3 2,-1 v -7 l 3,-3 -1,-3 4,-2 3,2 6,-2 2,-1 2,-4 9,-10 -6,1 -4,-10 1,-3 1,-1 6,1 2,-2 h -1 v -2 l 1,1 2,-6 3,1 z m 12.013,17.06073 3.53676,-0.82186 -1.73054,-10.341289 -3.5742,0.598116 z M 16,92 l 1,1 -1,-2 3,1 -1,-5 z M 315,54 v 1 h 3 v 3 l 11,2 1,-2 3,2 9,-4 -5,-5 -7,3 -2,-3 -4,2 h -9 z m 28,-13 h 1 l 3,2 h 2 l -1,-1 z m -15,-14 3,4 2,2 -2,-7 z m -41,-2 4,1 -2,-2 z m 6,-7 2,5 3,1 1,-5 h -4 l -1,-2 z"
   id="path2"
   style="display:inline"
   inkscape:label="path3"
   sodipodi:nodetypes="ccccccccccccccccccccccccccccccccccccccccccccccccccccccccccccccccccccccccccccccccccccccccccccccccccccccccccccccccccccccccccccccccccccccccccccccccccccccccccccccccccccccccccccccccccccccccccccccccccccccccccccccccccccccccccccccccccccccccccccccccccccccccccccccccccccccccccccccccccccccccccccccccccccccccccccccccccccccccccccccccccccccccccccccccccccccccccccccccccccccccccccccccccccccccccccccccccccccccccccccccccccccccccccccccccccccccccccccccccccccccccccccccccccccccccccccccccccccccccccccccccccccccccc" />
	<path
   fill="#f6bad3"
   stroke="#000000"
   stroke-width="0.2"
   stroke-linejoin="round"
   d="m 195,508 2,1 6,-2 3,2 4,-5 -9,-18 9,-8 6,1 2,-7 3,-1 h 2 l 1,-2 6,-1 v -2 l -2,-3 1,-3 3,-2 4,-4 9,1 5,3 9,-2 8,2 1,-1 -2,-2 2,-1 1,-7 3,-4 -1,-8 5,-4 v -4 l 5,4 v 6 l 4,-1 3,1 1,-2 4,2 5,-1 2,3 5,4 2,3 h 3 l 2,2 1,2 h 9 l 6,4 4,1 2,4 7,1 6,-3 3,-4 -1,-2 3,-2 2,-10 3,-3 -2,-8 1,-2 4,-1 v -4 -1 l -5,-3 h -4 l -8,-7 -3,-2 v -2 l 3,-4 5,-1 1,-2 -14,-3 v -9 l 2,-2 6,1 4,-3 h 5 v -2 h -1 -2 l -3,-5 6,-7 -5,-15 1,-2 -3,-5 h -2 v 2 l -3,-3 -1,-2 3,-3 7,-6 v -5 -4 l -1,-6 1,-3 h -2 l -1,-1 h 2 l -1,-1 h 1 l -4,-3 1,-1 v 1 l -1,-4 -2,1 -2,-3 -2,-5 -2,-4 v -4 l -2,-2 -5,-2 -2,1 -3,-1 -5,1 -3,2 -6,-2 5,-1 2,-6 h 4 v -1 h 6 l 1,-6 4,-2 -3,-10 -3,-1 1,-10 -1,-8 -5,-4 v -2 l -2,-4 4,-3 -1,-2 2,-2 v -5 l -1,-2 2,-7 -3,-2 1,-4 10,4 4,5 4,-3 2,-3 -4,-8 3,-2 v -3 l -5,-3 h -1 v -3 h 3 l -1,-1 -4,-2 2,-16 -7,1 -1,3 -1,-1 v 3 l -1,3 1,4 h -4 l -1,-1 -1,3 h -1 l 1,7 -13,6 -4,-1 1,-4 2,-1 2,-1 -2,-5 -1,-3 -1,-5 1,-2 -4,-8 2,-8 10,-2 3,-3 3,-6 6,-1 1,-3 -3,-8 1,-3 -1,-2 -2,-2 h -2 l -3,-3 h -5 l -1,3 v 2 l -5,3 -3,-1 -3,1 -7,-2 -6,-11 -4,4 -1,2 2,5 v 3 l -8,1 2,8 -2,3 -9,2 -1,-4 -2,-13 -4,-8 -3,-5 2,-3 -1,-3 -4,-4 -5,-1 h -4 l -4,3 -5,-7 1,-4 -6,-5 v -5 l -4,-2 -6,-9 v -3 h -7 l 2,3 -1,2 -1,6 -6,5 -9,3 -3,-4 -1,1 1,3 1,3 -3,11 -6,6 -4,-1 -1,-3 -2,1 1,1 2,5 -2,4 1,4 h 2 l 3,-7 v -2 h 3 l -3,2 v 4 l -1,3 1,-1 3,2 1,9 -1,6 -3,6 -5,8 4,2 4,5 v 7 l 8,1 h 2 l 3,-3 3,6 4,-2 1,-5 2,-1 1,-2 3,-1 h 4 l -2,5 2,3 -2,6 4,6 5,1 3,1 2,3 -4,5 4,5 4,2 v 7 h 3 l 3,3 -6,5 -1,-3 -1,3 -5,-2 -4,3 2,3 2,2 v 5 l 2,2 1,3 4,7 -2,1 -3,5 -9,-7 -4,1 v 3 l -5,3 1,3 -4,3 -3,-4 -2,-2 v -3 l -2,-1 -1,-5 h -6 l -4,4 -5,-5 -1,1 4,5 -1,6 -2,1 -5,-6 -4,1 -1,3 1,2 -3,6 h -2 l -1,-3 -4,3 -4,1 -1,4 h -2 l -2,3 -1,-1 -4,2 -2,-2 -2,2 3,4 1,8 3,6 -1,6 5,3 v 3 l 2,1 v 2 l -3,-2 v 6 l 3,6 5,3 -4,4 2,3 3,-3 4,2 4,-2 1,-7 7,-2 1,-4 6,-5 2,1 9,-5 2,2 2,-3 10,5 -1,2 2,6 1,13 v 14 l -3,11 -1,-1 -3,3 -7,-2 -1,6 -3,3 -5,-4 -2,1 -2,2 5,5 -2,6 -11,1 v 4 l 5,3 -3,2 h -1 -2 l -2,3 v 6 h -3 l -3,-4 2,-8 -3,-1 -2,1 1,2 v 6 l -5,2 1,4 -4,5 -3,1 -1,-5 h -4 v 6 l -2,3 -4,-2 -2,3 4,4 -1,4 -6,3 -3,3 h -5 l -1,3 v 7 h 1 l 2,3 2,1 v 4 1 l 1,14 5,1 4,-2 -2,4 2,3 -2,4 10,6 -4,6 10,4 1,6 1,1 3,9 -2,9 1,3 -6,5 v 4 l 3,-3 1,2 2,-2 v 2 l -1,-1 -1,1 1,2 -4,-1 -6,4 1,1 6,-2 1,1 5,-2 7,2 z m -9,-88 -9,2 -3,-7 -3,1 v -5 l -2,-1 h 2 l 1,-5 1,-2 -5,-2 3,-1 1,2 3,-4 3,1 -1,-4 h 3 v -1 l 1,-3 6,4 2,7 -2,8 -3,1 1,5 2,2 z m 25,-22 -2,-3 h -2 l 2,-2 h -2 l 1,-2 1,1 1,-1 -2,-4 1,-2 -1,-1 2,2 2,-2 v 2 l 1,-3 v 2 l 3,-2 -1,2 2,-1 v 2 l 1,-2 v -1 l 1,1 v -1 l 3,1 8,-3 1,-3 3,-2 3,3 v 2 l 9,-5 5,-4 1,1 -1,6 1,2 -1,1 5,9 v 4 h -9 l -2,-3 h -1 l -6,3 -7,2 -8,2 -6,-2 -3,1 v -1 z m 60,-63 h -7 l -7,4 -2,-4 2,-1 -1,-1 -6,-1 -4,2 -1,-1 1,-1 -11,1 1,-1 -1,-3 4,-6 2,-7 2,-1 1,-3 4,-1 -2,-4 -10,-8 2,-2 -1,-1 -4,-2 -1,-4 -3,-2 -1,-8 3,-3 -1,3 6,2 4,-7 8,-3 v -2 l 5,-5 2,1 3,-2 v 1 l 1,1 h 2 l 4,-3 4,4 3,2 -2,2 1,3 h -2 l 2,1 -1,3 -3,3 -4,9 v 3 l 3,1 2,5 -10,12 h -4 l -3,3 1,2 -2,1 4,4 8,2 1,2 -3,5 5,-1 v 2 z M 81,279 h 1 v -2 l 7,1 5,1 2,-1 2,3 5,1 3,-2 6,-2 v -4 l 1,-1 -1,-3 3,-5 h 2 v -3 l 2,2 1,-2 -1,-4 v -8 l -8,-5 -2,-4 -8,-1 -3,3 v -7 l 1,-3 -1,-4 h -2 -5 l -3,-4 -2,-4 1,-4 -2,-4 1,-7 -4,-6 -1,1 -8,4 -3,-1 -3,1 -2,4 v 4 -2 l 3,2 -1,2 -5,7 -6,2 h -4 l -6,-3 v 5 h -2 l -6,1 -1,2 4,2 1,3 v 3 h 1 l 8,-5 4,4 h 2 l -1,4 -3,-2 -2,2 -2,5 h 2 l 2,-5 4,1 3,4 5,-6 3,-1 1,3 -3,6 h -2 v 3 h -2 l -10,6 4,1 v 2 l -3,4 -3,1 -5,-1 -2,-3 -1,3 -3,2 -3,-1 -9,5 -6,1 h -1 l 2,3 -4,9 4,1 h 2 l 6,-2 2,2 h 8 l 3,-1 2,-3 9,1 4,2 4,-3 5,1 3,4 h 6 l 2,-4 z m 351,-15 7,-6 4,-3 v -5 l 7,-4 8,-17 8,-5 2,-4 -1,-2 2,-2 3,-5 h -3 l -7,-5 -1,2 -3,-1 -1,-3 2,4 -3,-1 -2,1 v -3 h -3 l 1,5 -1,1 v -3 h -3 v 3 h -2 l -6,-8 -2,4 -13,14 -7,14 -6,4 -3,10 -6,6 -2,9 h 1 l 4,-2 5,2 5,-2 1,-3 h 3 l 3,4 z m -163,-32 2,-5 -4,3 1,-4 -4,-1 2,-3 h 5 l 3,-2 2,1 v -2 l 2,3 h 3 l 3,-2 2,6 -2,9 -3,1 v 7 l -3,1 v 4 h -1 l -2,5 -2,1 -1,-2 3,-5 v -4 l -2,-1 -2,2 -3,-9 z m -249,1 3,4 1,-5 -2,-1 z m 377,-57 1,-1 3,2 2,-3 3,2 h 1 l -2,1 2,1 -1,1 2,-2 -1,3 h 1 l -1,1 2,2 5,-4 2,2 h 4 l 3,-2 v -2 l -2,-1 -3,-5 1,-1 -2,-2 -3,-10 -2,-2 h -3 l 3,-3 v -2 l 1,-1 -2,-3 -3,-1 -7,5 h -2 l -3,-1 -9,3 1,1 h -4 l -10,-5 -5,-1 -2,1 -2,-3 v 2 l -3,7 1,5 4,2 1,3 1,1 1,-5 4,1 v -1 l 3,1 3,4 -4,6 1,2 -2,1 3,2 -2,1 v 6 l 2,1 7,-4 2,1 2,-3 4,-1 v -2 z M 289,156 h 1 l 2,2 3,-2 v 7 5 l -1,4 -5,-1 1,4 -1,4 -3,1 -3,-1 h -2 l -3,-1 -3,2 -2,-4 v -2 l 4,-4 1,3 5,-1 -1,-10 3,-3 h 4 z m -3,-33 5,-3 -2,-2 4,2 -1,2 h 2 l 3,-5 5,-2 -6,-4 -1,-4 h -3 l -2,-2 -2,1 -3,-3 v 4 l -2,2 -2,-2 -6,2 -3,4 v 1 l 2,-1 2,5 3,-1 3,3 h 2 z m -95,-29 2,1 v -3 h -2 z m -14,-16 1,-3 2,1 -1,-3 h 2 l 2,-3 -1,-2 -6,1 -1,1 -5,-1 -3,1 -1,6 1,1 v 1 l 7,3 h 2 z m 27,-6 -1,-3 -3,-1 -2,2 4,3 v 3 l 5,1 z"
   id="path3"
   style="display:inline"
   sodipodi:nodetypes="cccccccccccccccccccccccccccccccccccccccccccccccccccccccccccccccccccccccccccccccccccccccccccccccccccccccccccccccccccccccccccccccccccccccccccccccccccccccccccccccccccccccccccccccccccccccccccccccccccccccccccccccccccccccccccccccccccccccccccccccccccccccccccccccccccccccccccccccccccccccccccccccccccccccccccccccccccccccccccccccccccccccccccccccccccccccccccccccccccccccccccccccccccccccccccccccccccccccccccccccccccccccccccccccccccccccccccccccccccccccccccccccccccccccccccccccccccccccccccccccccccccccccccccccccccccccccccccccccccccccccccccccccccccccccccccccccccccccccccccccccccccccccccccccccccccccccccccccccccccccccccccccccccccccccccccccccccccccccccccccccccccccccccccccccccccccccccccccccccccccccccccccccccccccccccccccccccccccccccccccccccccccccccccccccccccccccccccccccccccccccccccccccccccccccccccccccccccccccccccccccccccccccccccccccccccccccccccccccccccccccccccccccccccccccccccccccccccccccccccccccccccccccc"
   inkscape:label="path5" />
	<path
   fill="#ece3b4"
   stroke="#000000"
   stroke-width="0.2"
   stroke-linejoin="round"
   d="m 186,420 1,-2 -2,-2 -1,-5 3,-1 2,-8 -2,-7 -6,-4 -1,3 v 1 h -3 l 1,4 -3,-1 -3,4 -1,-2 -3,1 5,2 -1,2 -1,5 h -2 l 2,1 v 5 l 3,-1 3,7 z m 25,-22 3,-1 v 1 l 3,-1 6,2 8,-2 7,-2 6,-3 h 1 l 2,3 h 9 v -4 l -5,-9 1,-1 -1,-2 1,-6 -1,-1 -5,4 -9,5 v -2 l -3,-3 -3,2 -1,3 -8,3 -3,-1 v 1 l -1,-1 v 1 l -1,2 v -2 l -2,1 1,-2 -3,2 v -2 l -1,3 v -2 l -2,2 -2,-2 1,1 -1,2 2,4 -1,1 -1,-1 -1,2 h 2 l -2,2 h 2 z m 60,-63 -6,-4 v -2 l -5,1 3,-5 -1,-2 -8,-2 -4,-4 2,-1 -1,-2 3,-3 h 4 l 10,-12 -2,-5 -3,-1 v -3 l 4,-9 3,-3 1,-3 -2,-1 h 2 l -1,-3 2,-2 -3,-2 -4,-4 -4,3 h -2 l -1,-1 v -1 l -3,2 -2,-1 -5,5 v 2 l -8,3 -4,7 -6,-2 1,-3 -3,3 1,8 3,2 1,4 4,2 1,1 -2,2 10,8 2,4 -4,1 -1,3 -2,1 -2,7 -4,6 1,3 -1,1 11,-1 -1,1 1,1 4,-2 6,1 1,1 -2,1 2,4 7,-4 z m 93,-43 1,1 4,-1 2,-2 5,-1 6,-14 3,-1 5,-3 4,-6 4,-1 h 3 l 2,-9 6,-6 3,-10 6,-4 7,-14 13,-14 2,-4 -2,-1 -1,-6 -3,-4 -4,1 2,-1 -2,-6 -5,-8 2,-2 -4,1 v 2 l -3,2 h -4 l -2,-2 -5,4 -2,-2 1,-1 h -1 l 1,-3 -2,2 1,-1 -2,-1 2,-1 h -1 l -3,-2 -2,3 -3,-2 -1,1 h -4 v 2 l -4,1 -2,3 -2,-1 -7,4 -2,-1 v -6 l 2,-1 -3,-2 2,-1 -1,-2 4,-6 -3,-4 -3,-1 v 1 l -4,-1 -1,5 -1,-1 -1,-3 -4,-2 -1,-5 -2,-4 h -2 l -1,-1 -5,5 h -6 l -3,4 h -2 l -8,2 v -2 l -6,-4 -1,-4 -6,1 -3,6 -3,3 -10,2 -2,8 4,8 -1,2 1,5 1,3 2,5 -2,1 -2,1 -1,4 4,1 13,-6 -1,-7 h 1 l 1,-3 1,1 h 4 l -1,-4 1,-3 v -3 l 1,1 1,-3 7,-1 -2,16 4,2 1,1 h -3 v 3 h 1 l 5,3 v 3 l -3,2 4,8 -2,3 -4,3 -4,-5 -10,-4 -1,4 3,2 -2,7 1,2 v 5 l -2,2 1,2 -4,3 2,4 v 2 l 5,4 1,8 -1,10 3,1 3,10 9,1 3,4 -4,2 -1,2 3,3 4,8 h 3 l 2,-2 z m 111,-67 2,-4 v -4 l 3,-6 -1,-1 -2,-1 h 2 l -1,-1 -4,2 -1,4 -1,-3 -3,5 -2,2 1,2 -2,4 -8,5 -8,17 -7,4 v 5 l -4,3 -7,6 4,1 7,-1 2,2 4,-2 5,3 h 1 l 14,-3 5,1 3,-1 -4,-4 1,-3 -2,-3 8,-8 2,-7 -2,-4 -5,-5 z m -260,23 5,-3 v -3 l 4,-1 9,7 3,-5 2,-1 -4,-7 -1,-3 -2,-2 v -5 l -2,-2 -2,-3 4,-3 5,2 1,-3 1,3 6,-5 -3,-3 h -3 v -7 l -4,-2 -4,-5 4,-5 -2,-3 -3,-1 -5,-1 -4,-6 2,-6 -2,-3 2,-5 h -4 l -3,1 -1,2 -2,1 -1,5 -4,2 -3,-6 -3,3 h -2 l -8,-1 v -7 l -4,-5 -4,-2 -8,4 -2,-2 -2,3 v 1 l 12,7 3,9 3,-2 2,1 v 1 6 l 4,5 v 3 l 2,-1 2,2 1,-1 2,2 -1,3 v 2 2 l -3,2 -5,-5 -13,12 1,3 8,6 4,5 2,5 v 3 h 2 l 1,3 h 6 l 1,5 2,1 v 3 l 2,2 3,4 4,-3 z m 159,-8 h -1 l -12,-11 -7,5 -2,-7 1,-3 -3,-6 -2,-11 1,-6 -2,-3 1,-1 4,4 5,-2 4,-3 h 1 l -1,4 1,3 4,-3 v 1 l 2,1 v 3 l -4,8 2,2 v 4 l 4,3 v 3 l 2,2 1,8 z m -79,-72 v -5 -7 l -3,2 -2,-2 h -1 v 3 h -4 l -3,3 1,10 -5,1 -1,-3 -4,4 v 2 l 2,4 3,-2 3,1 h 2 l 3,1 3,-1 1,-4 -1,-4 5,1 z m 122.13773,-54.21815 3.5742,-0.59811 -1.16217,-6.94487 -3.53676,0.82186 z m -8.27566,0.56298 L 398,119 l -1,-1 -9,10 -2,4 -2,1 -6,2 -3,-2 -4,2 1,3 -3,3 v 7 l 5,1 10,5 h 4 l -1,-1 9,-3 3,1 h 2 l 7,-5 -3,-2 7,-6 -3,-4 -5,4 1,-3 -3,1 4,-5 -1,-2 -1,1 1,-1 v -2 h -2 l 2,-1 -1,-1 -2,1 -2,4 -2,1 2,-4 v -2 l 5,-2 -1.11207,-2.78017 4.17457,-0.21983 2.5625,1.625 1.125,-0.40625 z M 278,148 l -2,-8 8,-1 v -3 l -2,-5 1,-2 4,-4 -1,-2 -2,-3 h -2 l -3,-3 -3,1 -2,-5 -2,1 v -1 l 3,-4 6,-2 2,2 2,-2 v -4 l 3,3 2,-1 2,2 1,-3 -4,-4 -3,-2 v -2 h -2 l -3,-5 1,-3 -3,-2 -2,-5 v -1 l 1,-4 -4,-4 1,-5 -2,-1 -3,2 v 3 l -3,-1 3,5 2,2 h 2 l -1,2 -5,-4 -3,4 -7,3 -1,1 -12,3 h -9 l -5,-2 -1,-5 -9,1 v 3 l 6,9 4,2 v 5 l 6,5 -1,4 5,7 4,-3 h 4 l 5,1 4,4 1,3 -2,3 3,5 4,8 2,13 1,4 9,-2 z m -123,-5 h 1 l -7,-4 -2,3 2,3 2,-3 z m 126,79 h -3 l -2,-3 v 2 l -2,-1 -3,2 h -5 l -2,3 4,1 -1,4 4,-3 -2,5 -1,3 3,9 2,-2 2,1 v 4 l -3,5 1,2 2,-1 2,-5 h 1 v -4 l 3,-1 v -7 l 3,-1 2,-9 -2,-6 z"
   id="path4"
   style="display:inline"
   inkscape:label="path7"
   sodipodi:nodetypes="cccccccccccccccccccccccccccccccccccccccccccccccccccccccccccccccccccccccccccccccccccccccccccccccccccccccccccccccccccccccccccccccccccccccccccccccccccccccccccccccccccccccccccccccccccccccccccccccccccccccccccccccccccccccccccccccccccccccccccccccccccccccccccccccccccccccccccccccccccccccccccccccccccccccccccccccccccccccccccccccccccccccccccccccccccccccccccccccccccccccccccccccccccccccccccccccccccccccccccccccccccccccccccccccccccccccccccccccccccccccccccccccccccccccccccccccccccccccccccccccccccccccccccccccccccccccccccccccccccccccccccccccccccccccccccccccccccccccccccccccccccccccccccccccccccccccccccccccccccccccccccccccc" />
	<path
   fill="#b6f2dc"
   stroke="#000000"
   stroke-width="0.2"
   stroke-linejoin="round"
   d="m 365,293 -1,-1 h -13 l -2,2 h -3 l -4,-8 -3,-3 1,-2 4,-2 -3,-4 -9,-1 -4,2 -1,6 h -6 v 1 h -4 l -2,6 -5,1 6,2 3,-2 5,-1 3,1 2,-1 5,2 2,2 v 4 l 2,4 2,5 2,3 2,-1 1,4 v -1 l -1,1 4,3 h -1 l 1,1 h -2 l 1,1 h 2 l -1,3 1,6 v 4 l 1,-2 h 6 l 4,-2 -1,-4 1,-8 2,-1 -1,-3 1,-5 2,-11 z m 9,-53 -1,-5 -1,-8 -2,-2 v -3 l -4,-3 v -4 l -2,-2 4,-8 v -3 l -2,-1 v -1 l -4,3 -1,-3 1,-4 h -1 l -4,3 -5,2 -4,-4 -1,1 2,3 -1,6 2,11 3,6 -1,3 2,7 7,-5 12,11 z"
   id="path5"
   style="display:inline"
   inkscape:label="path9" />
	<path
   fill="none"
   stroke="#000000"
   stroke-width="0.2"
   stroke-linecap="round"
   stroke-linejoin="round"
   d="m 260,128 h -2 l -1,5 h -1 l -4,-1 -3,2 h -3 l -2,3 2,5 -5,-1 -4,4 -8,-1 -3,3 -5,-6 -1,-3 2,-1 -2,-2 -2,-2 h -3 l -3,2 -1,-3 -9,-6 4,-9 -3,-4 1,-5 -4,-7 h -2 v 3 l -2,-5 m 30,48 -1,3 v 3 l -2,4 5,5 -5,1 -1,4 m 68,-11 v -1 h -2 l -1,-4 -2,-1 1,-2 -7,3 -1,-3 m -55,9 -3,-4 -12,-1 -12,-5 -5,-1 m 111,25 -2,1 -5,-4 m -22,8 h -2 l -3,-1 -3,3 h -4 l -2,3 v 4 l -4,3 -2,-1 -1,4 -4,5 -3,-2 -8,3 -3,5 m 70,-2 1,5 5,9 h 3 l 2,3 -2,3 2,2 -5,2 -1,3 -1,-1 -3,-1 -3,-3 -2,-4 v -4 l -7,-3 -3,1 -3,-4 h -2 l -2,3 1,9 m 35,15 -3,1 -2,-2 1,-2 -1,-1 -1,1 -4,-5 m -132,30 3,5 3,2 -1,3 2,2 7,-6 3,1 -1,-2 2,-7 -1,-1 v -3 l -1,-1 h -2 m 42,-2 -6,9 -3,1 -1,-1 -2,1 -1,4 4,3 -4,8 -2,-2 -3,-6 h -3 v 2 l -3,-1 v 2 h -2 l -2,-5 -1,5 -3,8 2,2 -3,5 -4,2 h -6 v -2 l -4,-1 -2,-13 m 6,16 -3,4 1,6 -3,4 1,4 h 2 m 65,-38 v -3 l -5,-3 1,-3 -7,-6 v -5 l -4,-3 m 35,12 h -2 l -1,3 v 7 l -1,3 m -60,-17 -5,3 -3,-1 -2,2 3,5 -4,3 1,4 -2,3 v 5 l 3,9 m 121,-1 -1,-3 -1,-2 -8,-3 h -5 l -2,2 -3,-2 -6,2 -6,-3 h -6 l -3,-2 -3,1 -3,-3 h -2 m -36,30 -6,-6 h -5 l -1,4 -3,1 -1,-1 -1,1 m 120,46 -9,-8 -12,5 -6,-7 -2,2 -2,-2 h -4 l -1,2 -1,-1 -5,-5 h -2 l -1,6 h -7 v -2 l -16,1 m 64,52 -2,-2 -2,1 -5,-3 h -4 v -3 h -5 l -3,-3 -3,-4 -8,2 -6,-3 -3,-8 h 2 l -1,-10 -1,-1 v -6 l 3,-1 v -4 l -5,-3 2,-2 2,2 h 1 v -3 h -3 m -59,-3 -2,6 -4,-1 -5,4 v 1 h -3 l -2,2 -1,-1 m 76,20 -2,-1 -7,-1 -14,2 -12,2 -4,3 h -4 v 3 m -43,15 h -1 l -1,5 -2,-2 -2,2 h -4 v 2 l -3,-1 h -2 v 5 l -1,-1 -3,5 m 22,-3 v -1 m -43,3 1,-3 -1,-2 v 2 l -4,1 -7,-5 m 72,66 -3,-2 1,-5 -3,-5 1,-5 -1,-3 1,-6 h -3 l -2,1 -1,-3 2,-9 1,-1 -4,-1 -3,-2 -1,-4 2,-2 -5,-1 2,-2 -1,-5 h 1 l -1,-3 2,-1 h -2 l 2,-2 m -43,17 -8,1 -3,6 -5,-3 -1,1 v -2 l -4,2 v 5 l -2,1 h -4 m 74,-6 -4,1 h -8 l -5,5 -3,-2 2,-2 h -2 v -2 h -4 v 6 l -10,-1 4,-3 -2,-3 m 8,7 -1,3 -6,-1 v 2 h -2 l 3,3 v 4 l -4,1 1,4 -3,2 -11,20 -3,3 m 53,3 -2,-5 -3,3 -3,1 -2,-6 -4,-1 -1,3 -8,3 -6,-2 h -9 l -1,4 -3,2 -9,2 M 277,80 h -2 l 1,16 5,11 m -6,-27 -2,4 -2,4 -10,2 -2,10 6,-2 v 3 l -4,6 v 10 h -3 l 3,2 h 2 l 4,-5 h 5 m -11,-24 1,-4 -4,-4 m 103,114 -3,-4 3,-6 -4,-7 -2,-3 1,-4 -3,-4 -1,-11 v -2 m -19,6 4,7 -1,5 m -129,5 v 1 l -5,1 -3,4 -5,-1 -3,-1 m 129,6 -4,-4 -1,4 -8,1 m 40,9 h -5 m -113,-10 -5,5 -1,4 -4,2 -2,3 -7,-1 -5,1 -2,1 -1,3 2,1 v 6 l 4,3 3,3 5,1 2,2 9,-2 m -24,-17 h -2 m 208,-20 -8,7 v 10 l -4,5 -3,9 -1,7 -3,6 -1,6 1,4 4,2 -1,7 -2,2 v 7 l 3,6 4,3 m -46,-37 -2,2 -3,-1 v -4 l -4,3 -4,-3 2,-4 -3,-2 -1,-1 m -133,-4 -5,2 v 4 l 2,3 -2,1 h -4 l -2,-3 -3,-2 -3,-3 -6,2 m 294,8 h -4 v -3 l -3,-2 m -239,3 -6,3 -1,4 -5,2 h -7 l -4,-3 h -3 l -3,-2 1,-1 -2,-3 m 4,6 v 4 l -2,-1 -2,2 -1,5 m 141,-15 -1,1 -1,3 3,2 v 4 l -3,3 v 17 l -1,4 -7,3 v 3 m 56,10 -1,-4 -4,-1 1,-5 -2,-2 -2,-6 1,-4 -5,-9 1,-3 m -123,74 -2,-2 v -2 l -1,1"
   id="path6"
   style="display:inline"
   sodipodi:nodetypes="cccccccccccccccccccccccccccccccccccccccccccccccccccccccccccccccccccccccccccccccccccccccccccccccccccccccccccccccccccccccccccccccccccccccccccccccccccccccccccccccccccccccccccccccccccccccccccccccccccccccccccccccccccccccccccccccccccccccccccccccccccccccccccccccccccccccccccccccccccccccccccccccccccccccccccccccccccccccccccccccccccccccccccccccccccccccccccccccccccccccccccccccccccccccccccccccccccccccccccccccccccccccccccccccccccccccccccccccccccccccccccccccccccccccccccccccccc"
   inkscape:label="path13" />
	<path
   fill="#eeeeee"
   stroke="#000000"
   stroke-width="0.2"
   stroke-linejoin="round"
   d="m 295,70 2,1 2,-5 -3,1 z m 6,1 -1,-2 -1,2 v -2 l -1,2 v -2 l -1,1 -1,2 2,2 z m 113.82005,25.39947 -0.23648,2.119325 0.67821,4.052795 1.84428,-0.42748 -1.04157,-5.756627 z M 190,189 l 1,3 3,1 z m -89,109 -3,2 1,1 h 3 l -3,1 v 2 l 1,-2 4,-1 -2,1 1,2 -2,1 v 3 l 2,-2 v 2 h 4 l -4,-3 2,-2 -1,-2 3,-1 h -1 l -1,-1 3,-3 -3,1 -1,3 h -2 l 1,-2 z m 298,134 h -4 l 3,1 1,4 -2,2 1,1 -2,1 1,1 3,-1 -1,-3 2,-2 -2,-2 z m 0,0 3,-7 2,-1 -1,-2 h 4 l -4,-4 v -2 h -2 l 1,1 -1,2 1,1 v 4 l -2,1 z"
   id="path7"
   style="display:inline"
   inkscape:label="path15"
   sodipodi:nodetypes="ccccccccccccccccccccccccccccccccccccccccccccccccccccccccccccccccccccccccccccccc" />
</g>
<g
   id="g8">
	<rect
   x="269"
   y="486"
   opacity="0.75"
   fill="#ffffff"
   enable-background="new    "
   width="225"
   height="36"
   id="rect7"
   style="display:inline" />
	<rect
   x="273"
   y="490"
   width="217"
   height="8"
   id="rect8"
   style="display:inline" />
	<text
   transform="translate(351.6563,517.9998)"
   font-family="ArialMT"
   font-size="24px"
   id="text8"
   style="display:inline">50km</text>
</g>
<metadata
   id="metadata1"><rdf:RDF><cc:Work
       rdf:about=""><dc:title>福岡県行政区画地図 (2018年10月1日)</dc:title></cc:Work></rdf:RDF></metadata></svg>
